<svg width="45" height="45" viewBox="0 0 45 45" fill="none" xmlns="http://www.w3.org/2000/svg">
<g clip-path="url(#clip0_345_59)">
<path d="M25.6632 35.3157C25.5282 34.7411 25.5631 34.1993 25.701 33.6035C26.0034 32.2956 26.052 30.9683 25.8893 29.6041C25.6443 27.549 24.891 25.7481 23.6978 24.0941C23.4485 23.7487 23.3153 23.1716 23.0487 23.0208C21.7981 22.3096 20.8644 21.1385 19.4955 20.619C19.4309 20.5944 19.345 20.5942 19.3018 20.5515C18.4243 19.6625 17.2153 19.8276 16.1459 19.5862C14.5639 19.2289 12.9887 19.5396 11.4256 19.8337C11.337 19.8504 11.238 19.9161 11.1649 19.8929C10.0252 19.5304 9.3122 20.2835 8.5382 20.8829C6.69838 22.3074 5.08445 23.9325 4.0832 26.0694C3.4532 27.4146 3.0887 28.8207 3.00928 30.3304C2.8016 34.2693 4.29785 37.4501 7.24085 39.957C8.69458 41.1945 10.4172 41.9337 12.3373 42.3049C13.9661 42.6199 15.5625 42.5922 17.1267 42.2399C18.7951 41.8641 20.3217 41.0782 21.6622 39.9759C23.0905 38.8019 24.2639 37.3979 25.3232 35.8978C25.5577 35.5657 25.7815 35.3036 26.1883 35.2523C26.5951 35.201 26.8444 34.9258 27.107 34.6599C28.9873 32.7566 30.8589 30.8445 32.7516 28.9539C35.3016 26.4073 37.8598 23.8697 40.4263 21.341C42.1429 19.6425 43.5604 17.77 44.1762 15.3724C44.4264 14.3964 44.5308 13.4149 44.5587 12.4173C44.5697 12.0325 44.4212 11.711 44.1652 11.4331" stroke="black" stroke-width="0.927835" stroke-linecap="round" stroke-linejoin="round"/>
<path d="M35.5697 19.3724C36.0705 19.1598 36.3214 18.6806 36.683 18.3206C38.7867 16.2254 40.8879 14.1275 42.9866 12.0269C43.1839 11.8304 43.4006 11.6347 43.644 11.5069C44.2252 11.2018 44.5069 10.7333 44.3582 10.122C43.2638 5.62335 40.5755 2.5314 36.0865 1.293C31.9915 0.163726 28.2191 1.05855 25.1551 4.038C20.3207 8.73645 15.6065 13.5591 10.8255 18.3149C10.4205 18.7186 10.2657 19.1796 10.1777 19.7012" stroke="black" stroke-width="0.927835" stroke-linecap="round" stroke-linejoin="round"/>
<path d="M18.9713 30.854C18.9099 31.7891 18.7238 32.6835 18.1856 33.4796C16.4916 35.9849 13.0124 36.1028 11.1611 33.9399C9.89053 32.4549 9.66598 30.7625 10.3887 29.2194C11.2192 27.446 12.6515 26.5194 14.6412 26.5235C14.816 26.5235 14.9911 26.5235 15.1661 26.5235" stroke="black" stroke-width="0.927835" stroke-linecap="round" stroke-linejoin="round"/>
<path d="M37.8691 8.15234C37.732 8.50987 37.3909 8.68199 37.1425 8.93489C34.9632 11.1523 32.7769 13.3623 30.5836 15.5647C28.0982 18.0547 25.6055 20.5376 23.1055 23.0134" stroke="black" stroke-width="0.927835" stroke-linecap="round" stroke-linejoin="round"/>
<path d="M27.3681 10.0552C27.4432 10.4897 27.1955 10.7612 26.9125 11.0429C24.3037 13.6394 21.6992 16.2401 19.0989 18.845C18.8051 19.1375 18.5213 19.43 18.3789 19.8312" stroke="black" stroke-width="0.927835" stroke-linecap="round" stroke-linejoin="round"/>
<path d="M14.2476 23.1774C13.4356 23.3396 12.6137 23.3884 11.8136 23.6852C9.14597 24.6752 7.44339 26.617 6.87976 29.2891C5.99101 33.5036 8.23089 37.4438 12.6173 38.5575C15.9524 39.4044 19.1006 38.1525 21.0665 35.115C21.7086 34.123 22.0716 33.0313 22.1978 31.8388C22.4817 29.1561 21.5664 26.9399 19.6173 25.1563C18.3388 23.9863 16.8047 23.3032 15.0351 23.2402C14.7939 23.2316 14.5538 23.1983 14.3133 23.1763" stroke="black" stroke-width="0.927835" stroke-linecap="round" stroke-linejoin="round"/>
<path d="M14.4609 32.31C15.1901 32.31 15.7812 31.7189 15.7812 30.9897C15.7812 30.2606 15.1901 29.6694 14.4609 29.6694C13.7317 29.6694 13.1406 30.2606 13.1406 30.9897C13.1406 31.7189 13.7317 32.31 14.4609 32.31Z" stroke="black" stroke-width="0.927835" stroke-linecap="round" stroke-linejoin="round"/>
</g>
<defs>
<clipPath id="clip0_345_59">
<rect width="45" height="45" fill="white"/>
</clipPath>
</defs>
</svg>
