<svg width="53" height="47" viewBox="0 0 53 47" fill="none" xmlns="http://www.w3.org/2000/svg">
<path d="M18.2227 8.32551L19.3679 8.34705C19.404 8.34705 19.4468 8.3344 19.4756 8.3492C19.8015 8.52011 20.1754 8.45686 20.5135 8.56453C20.9107 8.69103 21.312 8.80677 21.701 8.95588C22.6411 9.31548 23.5113 9.79915 24.2741 10.4648C25.0313 11.1256 25.7192 11.8415 26.2471 12.7085C26.4966 13.1181 26.7315 13.5369 26.9183 13.9716C27.0873 14.3682 27.2268 14.7767 27.3355 15.1939C27.4023 15.4461 27.4192 15.7096 27.5137 15.9545C27.5434 16.0312 27.5653 16.1108 27.5788 16.1919C27.6938 16.8942 27.6943 17.6042 27.6539 18.3088C27.6291 18.6886 27.5726 19.0657 27.4852 19.4361C27.412 19.7558 27.3205 20.0686 27.2367 20.3846C27.029 21.161 26.6672 21.8878 26.1728 22.5214C25.8105 22.9917 25.4164 23.4366 25.0541 23.9081C24.6152 24.4744 24.2559 25.0981 23.9861 25.7618C23.8217 26.1688 23.6545 26.5793 23.5555 27C23.464 27.3838 23.2955 27.7574 23.3062 28.163C23.304 28.2303 23.2862 28.2961 23.2543 28.3554C23.1881 28.5035 23.1797 28.6537 23.1687 28.8111C23.1504 29.0722 23.092 29.3365 22.9711 29.5648C22.8096 29.8657 22.5364 30.0075 22.179 30.0043C21.1635 29.9949 20.1471 30.0196 19.1324 29.9906C18.7992 29.9809 18.4695 29.9949 18.1381 30.0005C17.9909 30.0029 17.8421 30.0102 17.7048 29.9383C17.6892 29.9269 17.6706 29.9203 17.6512 29.9191C17.6319 29.918 17.6127 29.9224 17.5958 29.9319C17.4136 30.0258 17.2112 30.0008 17.0144 30.0008C16.0059 30.0008 14.9976 29.997 13.9891 30.0046C13.8007 30.0046 13.6809 29.9507 13.5738 29.7892C13.3673 29.4762 13.3046 29.1322 13.2462 28.7716C13.1956 28.4526 13.1797 28.1237 13.0438 27.8171C12.9706 27.6519 12.9937 27.4589 12.9399 27.2764C12.7894 26.765 12.6328 26.2598 12.4333 25.7667C12.0474 24.8128 11.4695 23.9851 10.7947 23.2134C10.2432 22.5825 9.72776 21.9193 9.43115 21.1202C9.24657 20.6357 9.09611 20.1389 8.98085 19.6334C8.89849 19.2584 8.85165 18.8797 8.78921 18.5048C8.68531 17.8828 8.70577 17.25 8.78921 16.6269C8.85731 16.1112 8.9507 15.5936 9.09497 15.0948C9.2274 14.6373 9.38808 14.1821 9.60368 13.752C9.92802 13.0963 10.2881 12.4662 10.7422 11.8873C11.4084 11.0386 12.2002 10.335 13.1025 9.75286C13.5122 9.4831 13.9468 9.25309 14.4003 9.06597C14.8646 8.87971 15.334 8.68915 15.8253 8.59037C16.4303 8.46898 17.0303 8.29241 17.6609 8.34301C17.8394 8.35727 18.0211 8.33197 18.2011 8.32471" stroke="black" stroke-width="0.93" stroke-linecap="round" stroke-linejoin="round"/>
<path d="M13.6845 29.9995C13.6494 30.094 13.5985 30.1817 13.5338 30.259C13.3914 30.4277 13.3494 30.6207 13.3561 30.8422C13.3704 31.3033 13.698 31.6416 14.1601 31.6416H22.2849C22.4382 31.6385 22.5887 31.6824 22.7162 31.7674C22.8438 31.8525 22.9422 31.9745 22.9982 32.1172C23.1312 32.4381 23.0698 32.7769 22.8477 33.0054C22.6862 33.1715 22.5032 33.2477 22.2634 33.2477C19.8001 33.241 17.3366 33.2396 14.8731 33.2434C14.3841 33.2434 14.0304 33.5973 14.0304 34.0861C14.0304 34.5469 14.3876 34.8857 14.8731 34.8857H21.2252C21.784 34.8857 22.1756 35.3813 22.0464 35.9231C22.0082 36.0793 21.9199 36.2188 21.7951 36.3204C21.6703 36.4219 21.5158 36.4799 21.355 36.4856C19.8787 36.5322 18.4018 36.4977 16.9252 36.5023C16.6539 36.5023 16.399 36.5491 16.1715 36.6853C16.0569 36.7542 15.9775 36.7513 15.8876 36.6783C15.7939 36.6032 15.6816 36.5551 15.5627 36.5389" stroke="black" stroke-width="0.93" stroke-linecap="round" stroke-linejoin="round"/>
<path d="M18.8069 21.6367C18.8134 22.0004 18.6917 22.3524 18.7086 22.7171C18.7119 22.789 18.6992 22.8611 18.6992 22.9324C18.6992 25.2519 18.6992 27.5712 18.6992 29.8904" stroke="black" stroke-width="0.93" stroke-linecap="round" stroke-linejoin="round"/>
<path d="M19.2385 21.2909C19.2385 20.9076 19.4872 20.6667 19.7359 20.4269C19.9957 20.1739 20.3063 19.9788 20.647 19.8544C20.8432 19.7839 21.0911 19.7467 21.2892 19.8897C21.5015 20.0423 21.5538 20.2635 21.4857 20.5133C21.4402 20.681 21.3118 20.7806 21.1834 20.881C20.9834 21.0387 20.7484 21.1194 20.5172 21.2139C20.2893 21.3081 20.0408 21.2847 19.8199 21.3948C19.692 21.4586 19.5391 21.4419 19.4132 21.3743C19.2565 21.2904 19.1335 21.3079 19.0226 21.4424C18.8921 21.6039 18.747 21.6123 18.5446 21.5601C18.2727 21.4901 17.9834 21.5019 17.7043 21.5722C17.5428 21.6128 17.5016 21.7321 17.5334 21.8739C17.6219 22.2661 17.641 22.6631 17.641 23.063C17.6394 25.339 17.6394 27.6151 17.641 29.8913" stroke="black" stroke-width="0.93" stroke-linecap="round" stroke-linejoin="round"/>
<path d="M17.0987 21.2692C17.0632 20.8595 16.8102 20.585 16.5144 20.3411C16.2606 20.1317 15.9828 19.9478 15.6701 19.8512C15.4728 19.7904 15.2434 19.7576 15.047 19.8878C14.8653 20.0084 14.7794 20.189 14.8112 20.4043C14.8475 20.6533 15.0292 20.8113 15.2208 20.9427C15.5312 21.1545 15.8875 21.2546 16.256 21.313C16.2993 21.3198 16.3505 21.3149 16.3844 21.3365C16.6352 21.4961 16.8689 21.422 17.0947 21.2807L17.5523 21.6371" stroke="black" stroke-width="0.93" stroke-linecap="round" stroke-linejoin="round"/>
<path d="M15.2188 1.15137C15.2219 1.31356 15.2471 1.47457 15.2938 1.62993C15.3776 1.92089 15.3913 2.23177 15.4354 2.5343C15.443 2.58463 15.4325 2.63227 15.4529 2.68691C15.5813 3.02713 15.5913 3.39372 15.6755 3.74363C15.7638 4.10941 15.8176 4.48408 15.8868 4.85094C15.9436 5.1532 16.0171 5.46247 16.0453 5.77523C16.0642 5.98463 16.1619 6.18489 16.1482 6.40237" stroke="black" stroke-width="0.93" stroke-linecap="round" stroke-linejoin="round"/>
<path d="M22.414 1C22.4948 1.22609 22.4705 1.43765 22.4062 1.67289C22.3475 1.88822 22.3104 2.12454 22.2463 2.33395C22.147 2.65694 22.0717 2.98665 21.9866 3.3126C21.8445 3.85846 21.6868 4.40054 21.5525 4.94908C21.4911 5.19913 21.4531 5.46641 21.3425 5.71376C21.2445 5.93312 21.2222 6.1864 21.1678 6.41895C21.0098 6.43833 20.8561 6.39661 20.707 6.44452" stroke="black" stroke-width="0.93" stroke-linecap="round" stroke-linejoin="round"/>
<path d="M35.3578 17.6391C34.9832 17.599 34.6079 17.6391 34.2343 17.6321C33.5927 17.6181 32.951 17.6404 32.3112 17.6265C31.7266 17.6141 31.1438 17.6197 30.5616 17.6402C30.3883 17.6461 30.2168 17.5864 30.043 17.6283" stroke="black" stroke-width="0.93" stroke-linecap="round" stroke-linejoin="round"/>
<path d="M6.27253 17.6281C5.84726 17.6011 5.42415 17.5823 4.99699 17.6335C4.65328 17.6749 4.30472 17.5885 3.96047 17.6017C3.32579 17.6265 2.69327 17.6286 2.0586 17.6017C1.70681 17.5863 1.35287 17.6251 1 17.6394" stroke="black" stroke-width="0.93" stroke-linecap="round" stroke-linejoin="round"/>
<path d="M33.3263 10.5513C32.5051 10.9332 31.6828 11.3122 30.8632 11.6973C30.2132 12.0031 29.5664 12.3164 28.918 12.6259" stroke="black" stroke-width="0.93" stroke-linecap="round" stroke-linejoin="round"/>
<path d="M3.61523 9.43831C3.76273 9.39417 3.83541 9.53117 3.93634 9.58473C4.61731 9.94621 5.27971 10.3413 5.9526 10.7176C6.57166 11.064 7.1875 11.4174 7.80817 11.7595C7.88112 11.7999 7.9659 11.8187 8.04503 11.8475" stroke="black" stroke-width="0.93" stroke-linecap="round" stroke-linejoin="round"/>
<path d="M32.8505 25.8069C32.6238 25.8209 32.4669 25.6532 32.2941 25.5593C31.4328 25.091 30.5909 24.586 29.7371 24.1013C29.31 23.8591 28.8737 23.6316 28.4414 23.3975" stroke="black" stroke-width="0.93" stroke-linecap="round" stroke-linejoin="round"/>
<path d="M7.85123 23.4189C6.78519 24.021 5.71923 24.6222 4.65337 25.2225C4.32473 25.4075 3.98855 25.5789 3.66152 25.7665C3.56624 25.8203 3.47311 25.7967 3.37891 25.8069" stroke="black" stroke-width="0.93" stroke-linecap="round" stroke-linejoin="round"/>
<path d="M11.4596 8.21748C11.4208 7.98304 11.2305 7.84065 11.108 7.65951C10.6545 6.99388 10.1778 6.34414 9.70842 5.68928C9.3421 5.17788 8.96608 4.67159 8.61322 4.15023C8.54378 4.04768 8.47864 4.04903 8.39062 4.04688" stroke="black" stroke-width="0.93" stroke-linecap="round" stroke-linejoin="round"/>
<path d="M28.9089 4.47949C28.9964 4.76076 28.815 4.94217 28.6592 5.12547C28.1582 5.71896 27.6479 6.30438 27.1492 6.89949C26.6825 7.45665 26.2276 8.02376 25.763 8.58253C25.7302 8.62122 25.7058 8.66628 25.6912 8.71487C25.6767 8.76346 25.6723 8.81453 25.6785 8.86488" stroke="black" stroke-width="0.93" stroke-linecap="round" stroke-linejoin="round"/>
<path d="M16.0625 36.7632C16.0827 37.004 16.1825 37.2313 16.3462 37.4092C16.5567 37.6379 16.7384 37.8804 16.8638 38.1671C17.0282 38.542 17.2815 38.8335 17.6834 38.967C18.1595 39.125 18.6222 39.0852 19.0405 38.8098C19.2065 38.7006 19.3433 38.5372 19.4566 38.3633C19.5521 38.2166 19.6044 38.0627 19.585 37.8869" stroke="black" stroke-width="0.93" stroke-linecap="round" stroke-linejoin="round"/>
<path d="M21.7874 5.92708C21.6576 5.92196 21.5263 5.94243 21.3984 5.90527" stroke="black" stroke-width="0.93" stroke-linecap="round" stroke-linejoin="round"/>
<path d="M17.8184 39.0163V42.738C17.8184 43.1516 17.8999 43.5612 18.0584 43.9433C18.2169 44.3253 18.4491 44.6724 18.7419 44.9646C19.0346 45.2569 19.3821 45.4885 19.7645 45.6463C20.1468 45.8041 20.5566 45.8849 20.9702 45.8841L45.8385 45.8397C46.1529 45.8397 46.4642 45.7777 46.7546 45.6572C47.045 45.5368 47.3088 45.3603 47.531 45.1378C47.7531 44.9153 47.9292 44.6512 48.0492 44.3606C48.1692 44.07 48.2307 43.7586 48.2302 43.4442L48.224 39.8082C48.4897 39.6394 48.6461 39.3848 48.7731 39.0995C48.9588 38.6828 49.1674 38.2775 49.382 37.8751C49.4731 37.7083 49.5313 37.5255 49.5534 37.3368C49.5588 37.2899 49.5408 37.2272 49.5803 37.2022C49.9617 36.954 50.0635 36.5196 50.2575 36.1562C50.7897 35.1604 51.2857 34.147 51.7936 33.139C51.8305 33.066 51.8814 32.9775 51.8679 32.9056C51.7947 32.5202 51.9756 32.1638 51.9756 31.7865C51.9716 24.9874 51.9716 18.1882 51.9756 11.3889C51.9756 11.1735 51.9608 10.9647 51.8919 10.7625C51.8736 10.7188 51.8682 10.6708 51.8762 10.6242C52.0625 9.78711 52.0229 8.94545 51.8695 8.11483C51.6375 6.85651 50.5113 5.79307 49.2468 5.60789C48.4701 5.4943 47.6833 5.46604 46.9146 5.66549C46.2399 5.8419 45.6396 6.23024 45.2021 6.77335C44.7646 7.31647 44.513 7.98567 44.4844 8.68248C44.4663 9.15243 44.4825 9.62453 44.4811 10.0945C44.4811 10.2829 44.4706 10.4713 44.5619 10.6425C44.5888 10.6909 44.5993 10.7423 44.577 10.7795C44.4313 11.0217 44.4833 11.2885 44.483 11.5458C44.4809 18.2667 44.4802 24.9874 44.4811 31.7081C44.4811 31.9547 44.4607 32.2034 44.5786 32.4349C44.5877 32.4526 44.6208 32.4489 44.6023 32.4946C44.4601 32.848 44.6537 33.143 44.799 33.4329C45.3642 34.5634 45.9157 35.7008 46.5378 36.7974C46.7496 37.1715 46.91 37.5529 47.0761 37.9418C47.275 38.4061 47.5606 38.8301 47.7589 39.2965C47.8187 39.4246 47.9042 39.539 48.0101 39.6327C48.1374 39.753 48.2921 39.8612 48.23 40.083" stroke="black" stroke-width="0.93" stroke-linecap="round" stroke-linejoin="round"/>
<path d="M46.8125 13.8403C46.9002 13.8982 46.8911 13.9884 46.8911 14.0756C46.8911 14.3765 46.8911 14.6772 46.8911 14.9778C46.8911 19.6073 46.8911 24.236 46.8911 28.8639C46.8911 29.0413 46.8642 29.2222 47.0491 29.3347" stroke="black" stroke-width="0.93" stroke-linecap="round" stroke-linejoin="round"/>
<path d="M49.5391 13.9775V29.1973" stroke="black" stroke-width="0.93" stroke-linecap="round" stroke-linejoin="round"/>
<path d="M44.6152 10.7029C45.2297 10.6674 45.8442 10.6986 46.4587 10.7002C47.5375 10.7032 48.6165 10.6712 49.6948 10.69C50.4016 10.7021 51.1071 10.6784 51.8131 10.6833" stroke="black" stroke-width="0.93" stroke-linecap="round" stroke-linejoin="round"/>
<path d="M44.6543 32.473C44.8376 32.4598 45.0206 32.4356 45.2036 32.4354C47.204 32.4327 49.2048 32.432 51.2059 32.4332C51.4107 32.4332 51.615 32.4351 51.8139 32.4924" stroke="black" stroke-width="0.93" stroke-linecap="round" stroke-linejoin="round"/>
<path d="M49.5386 37.2389C49.3889 37.1202 49.2156 37.0803 49.0285 37.0811C48.4795 37.0833 47.9301 37.0841 47.381 37.0811C47.2076 37.0789 47.0372 37.127 46.8906 37.2197" stroke="black" stroke-width="0.93" stroke-linecap="round" stroke-linejoin="round"/>
</svg>
