<svg width="44" height="44" viewBox="0 0 44 44" fill="none" xmlns="http://www.w3.org/2000/svg">
<path d="M6.17911 11.1458C3.57439 10.0534 2.57728 10.7332 2.57728 13.6016C2.57728 15.8391 2.70615 18.086 2.54436 20.3118C2.34638 23.0321 3.46689 25.2031 4.61379 27.5626C6.07859 30.5765 8.2686 32.8479 10.6278 35.0196C12.0015 36.2842 12.644 37.6463 12.4118 39.4722C12.3643 39.8461 12.46 40.2386 12.4955 40.6987H20.2591C20.2591 37.8356 20.2877 35.0514 20.2299 32.2677C20.2207 31.8266 19.907 31.3172 19.591 30.9692C16.995 28.1101 14.3421 25.3023 11.7662 22.4253C11.2778 21.8802 10.6993 21.8078 10.0452 21.6839C9.54894 22.1368 9.12942 22.7497 8.79866 23.427" stroke="black" stroke-width="0.927835" stroke-linecap="round" stroke-linejoin="round"/>
<path d="M35.6505 23.4249L34.6192 21.8332C33.0953 21.3701 32.4028 22.5745 31.77 23.3041C29.7917 25.583 27.7057 27.7584 25.6507 29.9622C24.6349 31.0524 24.0706 32.1838 24.1571 33.7415C24.2842 36.0279 24.1898 38.3265 24.1898 40.697H32.1579C30.9751 36.8405 33.7714 34.9843 36.0015 32.9461C38.7508 30.4332 39.9263 26.9994 41.7199 23.9224C41.9815 23.4731 41.8568 23.0387 41.8601 22.6057C41.8819 19.6044 41.8719 16.6026 41.8719 13.6006C41.8719 10.7323 40.8748 10.0524 38.27 11.1448" stroke="black" stroke-width="0.927835" stroke-linecap="round" stroke-linejoin="round"/>
<path d="M22.2247 3.28721C21.7887 3.01444 21.3364 2.76391 20.9165 2.46519C18.261 0.579136 15.7618 1.55226 14.2205 3.304C12.5703 5.17916 12.4879 8.09873 14.3877 9.97607C16.8871 12.4471 19.547 14.7558 22.2154 17.2059C23.913 15.6796 25.5296 14.2368 27.1329 12.7796C28.0183 11.9746 28.887 11.1507 29.7535 10.3249C31.7497 8.42274 32.1827 5.44081 30.0557 3.14701C28.1668 1.11072 24.8402 1.22497 22.228 3.28067" stroke="black" stroke-width="0.927835" stroke-linecap="round" stroke-linejoin="round"/>
<path d="M9.94538 21.6242C9.58299 19.1752 9.77901 16.7098 9.82916 14.2577C9.84944 13.2695 9.71273 12.2964 9.76004 11.3087C9.82436 9.9699 9.24132 9.34521 8.14457 9.34521C7.13657 9.34521 6.22908 10.3275 6.36034 11.4716C6.68588 14.3091 6.39349 17.1507 6.51646 19.9867C6.53827 20.4856 6.36383 20.9845 6.81932 21.4749C9.25615 24.0938 10.9451 27.3208 13.5474 29.8104" stroke="black" stroke-width="0.927835" stroke-linecap="round" stroke-linejoin="round"/>
<path d="M34.5042 21.6242C34.8665 19.1752 34.6707 16.7098 34.6204 14.2577C34.6001 13.2695 34.737 12.2964 34.6895 11.3087C34.6241 9.9699 35.2084 9.34521 36.3052 9.34521C37.313 9.34521 38.2207 10.3275 38.0894 11.4716C37.7639 14.3091 38.0563 17.1507 37.9333 19.9867C37.9115 20.4856 38.0859 20.9845 37.6304 21.4749C35.1934 24.0938 33.5047 27.3208 30.9023 29.8104" stroke="black" stroke-width="0.927835" stroke-linecap="round" stroke-linejoin="round"/>
<path d="M16.0848 26.3719C16.6205 24.4263 16.3259 22.4374 16.2828 20.4792C16.2549 19.2146 15.2645 18.9579 13.3828 19.4958" stroke="black" stroke-width="0.927835" stroke-linecap="round" stroke-linejoin="round"/>
<path d="M31.0649 19.4957C28.8552 18.6942 27.8335 19.4889 28.1082 21.7888C28.2897 23.3081 27.837 24.8675 28.3636 26.3718" stroke="black" stroke-width="0.927835" stroke-linecap="round" stroke-linejoin="round"/>
<path d="M12.728 23.0973C13.2694 21.5444 13.0405 19.9383 13.0551 18.3495C13.0623 17.5307 12.977 16.7028 13.0715 15.8954C13.3405 13.5948 12.3192 12.7992 10.1094 13.6014" stroke="black" stroke-width="0.927835" stroke-linecap="round" stroke-linejoin="round"/>
<path d="M34.3385 13.6016C32.1286 12.8003 31.1677 13.5907 31.3624 15.8963C31.5087 17.6301 31.4174 19.3871 31.3786 21.1325C31.3631 21.8231 31.4926 22.4626 31.7189 23.0975" stroke="black" stroke-width="0.927835" stroke-linecap="round" stroke-linejoin="round"/>
</svg>
