<svg width="45" height="45" viewBox="0 0 45 45" fill="none" xmlns="http://www.w3.org/2000/svg">
<path d="M35.5261 37.433C35.6183 37.0955 35.8346 36.839 36.0886 36.6185C37.8647 35.0797 39.2849 33.2527 40.4187 31.2057C41.5057 29.243 42.243 27.1404 42.6012 24.9302C42.8487 23.4002 42.9439 21.8558 42.8433 20.2887C42.6964 18.0036 42.2133 15.8206 41.3473 13.7063C40.4196 11.4444 39.1182 9.43242 37.4674 7.63445C36.2128 6.26825 34.8041 5.08857 33.2266 4.12197C31.036 2.77917 28.6816 1.86477 26.1409 1.39745C24.408 1.08061 22.6412 0.992036 20.8853 1.13397C18.1604 1.34997 15.5623 2.08572 13.1201 3.38712C10.7606 4.64465 8.73804 6.2705 6.99451 8.29077C5.90866 9.5492 5.01451 10.9251 4.26436 12.3889C3.42624 14.0262 2.86689 15.7725 2.50801 17.5844C2.26726 18.8007 2.15521 20.0319 2.12889 21.26C2.10353 22.4905 2.20228 23.7204 2.42364 24.9311C2.81199 27.0555 3.48969 29.0958 4.51614 30.9991C5.23733 32.3361 6.10396 33.5894 7.10026 34.7361C8.41314 36.2511 9.90759 37.5322 11.5942 38.6127C13.751 39.9948 16.069 40.9419 18.5872 41.4175C19.9723 41.6792 21.3574 41.8842 22.7722 41.7953" stroke="black" stroke-width="0.927835" stroke-linecap="round" stroke-linejoin="round"/>
<path d="M27.3122 13.9636C27.4963 13.5472 27.4315 13.1291 27.2553 12.7419C26.8728 11.9008 26.4572 11.0904 25.9391 10.3047C25.4877 9.62002 25.0321 8.9241 24.5499 8.2545C24.2124 7.78582 23.822 7.3527 23.431 6.927C23.0303 6.49027 22.0936 6.46867 21.6564 6.93082C20.8064 7.82925 19.9867 8.78212 19.3869 9.85087C18.9339 10.6579 18.3069 11.3705 18.0144 12.277C17.851 12.7828 17.6348 13.267 17.6715 13.8113C17.6913 14.1061 17.4258 14.2786 17.4015 14.5763C17.262 16.3329 17.8312 17.8163 19.1036 19.0088C20.0369 19.8838 21.1637 20.3527 22.5157 20.3415V35.5965" stroke="black" stroke-width="0.927835" stroke-linecap="round" stroke-linejoin="round"/>
<path d="M28.2305 20.8003C28.3999 21.102 28.4555 21.4231 28.4375 21.7698C28.3643 23.1324 28.5333 24.4894 28.5513 25.8511C28.5617 26.6386 29.1271 27.1464 29.9144 27.2267C31.2207 27.3602 32.5325 27.3446 33.8424 27.3235C34.2492 27.3137 34.6522 27.4038 35.016 27.5861" stroke="black" stroke-width="0.927835" stroke-linecap="round" stroke-linejoin="round"/>
<path d="M16.8021 20.8003C16.6324 21.102 16.5771 21.4231 16.5949 21.7698C16.668 23.1324 16.5186 24.4905 16.4824 25.8509C16.4619 26.6361 15.9068 27.1433 15.1175 27.2274C13.8451 27.3624 12.5674 27.3399 11.2912 27.3248C10.8519 27.3171 10.4164 27.4063 10.0156 27.5861" stroke="black" stroke-width="0.927835" stroke-linecap="round" stroke-linejoin="round"/>
<path d="M27.1076 28.7594C29.2412 30.9102 32.8624 30.6233 34.726 28.2729C35.1601 27.7255 35.6611 27.1401 35.8915 26.4151C36.0967 25.7691 36.4849 25.1664 36.479 24.4738C36.4752 24.0315 36.7398 23.7023 36.8023 23.3002C36.9416 22.4031 37.0813 21.5099 37.1349 20.5977C37.1644 20.0926 37.177 19.6644 36.9157 19.2115C36.693 18.8252 36.3661 18.7104 35.9847 18.6605C35.3173 18.5732 34.6585 18.7329 33.9961 18.773C33.459 18.8046 32.9283 18.9068 32.4178 19.077C31.41 19.4185 30.3122 19.4156 29.3481 19.9243C28.9616 20.1284 28.5415 20.2746 28.292 20.654C28.2525 20.7165 28.1942 20.7649 28.1255 20.7921C26.5788 21.2871 26.0505 22.6371 25.7135 23.9718C25.2668 25.7401 25.7195 27.381 27.0565 28.7079" stroke="black" stroke-width="0.927835" stroke-linecap="round" stroke-linejoin="round"/>
<path d="M17.9764 28.7087C19.8707 26.9026 19.9479 23.814 18.2385 21.764C17.8677 21.3188 17.5365 20.8802 16.9063 20.7902C16.6854 20.7592 16.6588 20.446 16.448 20.3366C15.4661 19.8292 14.4959 19.2949 13.3333 19.3691C13.2785 19.3715 13.2248 19.3534 13.1826 19.3185C12.7922 18.9524 12.2616 18.936 11.8002 18.8872C10.9875 18.8012 10.1802 18.6172 9.35374 18.6543C8.63082 18.6874 8.11917 19.0213 7.87932 19.6796C7.82533 19.8254 7.80802 19.9821 7.82892 20.1361C7.99767 21.1696 7.97472 22.2287 8.23054 23.2495C8.23842 23.2817 8.22199 23.3208 8.23279 23.3507C8.64049 24.4757 8.68639 25.711 9.30109 26.7707C9.44306 27.0158 9.54341 27.2817 9.80869 27.4403C9.89059 27.4894 9.98419 27.5479 10.0258 27.6854C10.3584 28.7825 11.2712 29.2806 12.2126 29.7257C14.1321 30.6331 16.4923 30.2378 17.9253 28.7595" stroke="black" stroke-width="0.927835" stroke-linecap="round" stroke-linejoin="round"/>
<path d="M22.5667 17.6877C23.0392 17.6385 23.408 17.4198 23.7462 17.0802C24.6131 16.2126 25.5063 15.3702 26.3951 14.5251C26.6466 14.2857 26.9063 14.0486 27.282 13.957C27.7338 14.4484 27.7404 14.9994 27.642 15.6495C27.5268 16.4131 27.3468 17.1489 26.9416 17.7807C25.9278 19.3611 24.5148 20.3247 22.5156 20.3407V6.66748" stroke="black" stroke-width="0.927835" stroke-linecap="round" stroke-linejoin="round"/>
<path d="M31.8008 19.4229C32.0015 20.0949 31.8683 20.7834 31.9005 21.4638C31.9304 22.0938 31.9659 22.697 32.3466 23.2598C32.6295 23.6778 32.9879 23.8405 33.4336 23.8551C34.1811 23.8794 34.9301 23.8684 35.6782 23.858C35.9417 23.8544 36.1957 23.8805 36.4432 23.9638" stroke="black" stroke-width="0.927835" stroke-linecap="round" stroke-linejoin="round"/>
<path d="M13.2318 19.4229C13.1157 19.7023 13.1326 19.9966 13.1279 20.2902C13.1166 20.9877 13.1711 21.6971 13.0604 22.3789C12.9188 23.2438 12.3921 23.8774 11.5486 23.8639C10.8176 23.8524 10.0861 23.8681 9.35484 23.8578C9.09137 23.8542 8.83734 23.8803 8.58984 23.9635" stroke="black" stroke-width="0.927835" stroke-linecap="round" stroke-linejoin="round"/>
<path d="M17.7695 13.9121C18.0665 13.9735 18.2749 14.165 18.4866 14.3686C19.5009 15.3447 20.5271 16.3077 21.5435 17.2813C21.8049 17.5319 22.0952 17.6773 22.4635 17.6368" stroke="black" stroke-width="0.927835" stroke-linecap="round" stroke-linejoin="round"/>
<path d="M28.74 27.0244C27.0393 28.7252 25.3149 30.403 23.6501 32.1382C23.0106 32.8044 22.0204 32.8044 21.381 32.1382C19.716 30.403 17.9918 28.7252 16.291 27.0244" stroke="black" stroke-width="0.927835" stroke-linecap="round" stroke-linejoin="round"/>
<path d="M34.7344 33.7085C34.7429 34.5927 34.7569 35.4772 34.7569 36.3615C34.7569 36.6553 34.8118 36.9172 34.9517 37.1843C35.0449 37.3623 35.1587 37.3767 35.3151 37.4466C36.4259 37.9441 37.6011 37.6428 38.7395 37.7646" stroke="black" stroke-width="0.927835" stroke-linecap="round" stroke-linejoin="round"/>
<path d="M36.5457 19.2695L32.6172 23.1472" stroke="black" stroke-width="0.927835" stroke-linecap="round" stroke-linejoin="round"/>
<path d="M8.53711 19.2695L12.4145 23.1472" stroke="black" stroke-width="0.927835" stroke-linecap="round" stroke-linejoin="round"/>
<path d="M25.8318 10.3408C25.0313 10.8194 24.4976 11.5934 23.7967 12.1842C23.4264 12.4965 23.0792 12.8129 22.5664 12.8408" stroke="black" stroke-width="0.927835" stroke-linecap="round" stroke-linejoin="round"/>
<path d="M19.3008 10.3921C20.0757 10.9715 20.7334 11.6804 21.4383 12.3379C21.7405 12.6203 22.0566 12.8081 22.4652 12.841" stroke="black" stroke-width="0.927835" stroke-linecap="round" stroke-linejoin="round"/>
<path d="M12.7695 23.5557L15.8817 26.6157" stroke="black" stroke-width="0.927835" stroke-linecap="round" stroke-linejoin="round"/>
<path d="M32.2606 23.5557L29.1484 26.6157" stroke="black" stroke-width="0.927835" stroke-linecap="round" stroke-linejoin="round"/>
</svg>
